<?xml version="1.0" encoding="utf-8"?>
<!-- Generator: Adobe Illustrator 16.0.0, SVG Export Plug-In . SVG Version: 6.00 Build 0)  -->
<!DOCTYPE svg PUBLIC "-//W3C//DTD SVG 1.1//EN" "http://www.w3.org/Graphics/SVG/1.1/DTD/svg11.dtd">
<svg version="1.1" id="图层_1" xmlns="http://www.w3.org/2000/svg" xmlns:xlink="http://www.w3.org/1999/xlink" x="0px" y="0px"
	 width="720.96px" height="728.88px" viewBox="0 0 720.96 728.88" enable-background="new 0 0 720.96 728.88" xml:space="preserve">
<path fill-rule="evenodd" clip-rule="evenodd" fill="#6B6B6B" d="M634.32,429.36c0,48.635,0,97.285,0,145.92
	c0.003,41.609,0.971,73.095-14.4,99.36c-15.423,26.354-37.104,44.857-71.76,52.08c-14.452,3.012-33.788,1.2-50.16,1.2
	c-19.518,0-39.042,0-58.56,0c-9.633,0-21.087,1.023-27.12-2.64c-4.284-2.601-8.008-7.219-9.6-12.48
	c-1.381-4.565-0.721-11.405-0.72-17.04c0-12.079,0-24.161,0-36.24c0-62.474,0-124.966,0-187.44c-28.397,0-56.803,0-85.2,0
	c0,62.474,0,124.966,0,187.44c0,12.239,0,24.481,0,36.72c0,5.23,0.76,11.887-0.48,16.32c-1.552,5.548-5.391,10.033-9.84,12.72
	c-6.052,3.655-17.477,2.641-27.12,2.64c-19.438,0-38.882,0-58.32,0c-16.199,0.001-35.409,1.807-49.68-1.2
	c-38.418-8.096-63.66-32.207-77.52-64.8c-10.456-24.589-9.121-54.757-9.12-90c0-48.075,0-96.165,0-144.24
	c-40.754,0.485-61.626-6.604-76.56-31.92c-5.208-8.828-10.608-23.326-7.92-38.64c0.951-5.419,1.687-10.802,3.36-15.6
	c3.394-9.735,7.742-18.653,13.2-26.4c12.301-17.46,29.47-30.341,42.72-46.8c3.52-3.52,7.04-7.041,10.56-10.56
	c53.594-56.074,107.205-112.166,160.8-168.24c10.399-10.879,20.801-21.761,31.2-32.64c17.205-21.364,39.583-42.645,68.88-51.84
	c7.099-2.228,14.617-2.714,22.8-4.08c12.604-2.105,27.99,2.048,36.72,4.8c22.535,7.104,38.895,19.859,52.08,36.24
	c6.079,6.399,12.161,12.801,18.24,19.2c59.034,62.154,118.086,124.326,177.12,186.48c4.479,4.56,8.96,9.121,13.44,13.68
	c18.576,23.06,43.151,40.45,58.56,66.72c3.682,6.276,6.304,13.672,8.4,21.36c3.889,14.266,0.434,30.489-4.08,40.8
	C700.599,421.398,679.093,429.492,634.32,429.36z"/>
<path fill-rule="evenodd" clip-rule="evenodd" fill="none" d="M274.08,685.2c0-57.114,0-114.246,0-171.36
	c-0.001-27.403-2.869-58.551,9.36-73.68c12.807-15.844,57.163-11.039,85.92-11.04c17.124-0.001,38.987-2.152,51.84,2.88
	c25.749,10.081,21.841,38.083,21.84,72.96c0,60.074,0,120.166,0,180.24c21.918,0,43.842,0,65.76,0c11.099,0,24.425,1.39,34.32-0.72
	c7.534-1.606,14.05-4.147,19.68-7.68c16.711-10.487,26.112-28.92,30-52.32c0.16-6.56,0.32-13.121,0.48-19.68c0-11.999,0-24.001,0-36
	c0-36.796,0-73.604,0-110.4c0-13.119,0-26.241,0-39.36c0-5.864-0.729-13.27,0.72-18c9.88-32.245,76.1,4.716,82.08-32.88
	c2.107-13.25-6.53-22.67-11.76-29.28c-16.798-17.838-33.602-35.682-50.4-53.52c-56.154-59.514-112.326-119.046-168.48-178.56
	c-9.359-9.919-18.721-19.841-28.08-29.76c-14.379-17.808-26.607-29.56-54.96-33.84c-10.457-1.579-21.217,2.285-28.08,5.28
	c-13.291,5.799-23.814,17.443-32.4,28.08c-9.119,9.599-18.241,19.201-27.36,28.8c-55.995,58.954-112.006,117.926-168,176.88
	c-13.599,14.319-27.201,28.642-40.8,42.96c-9.783,12.119-21.206,19.754-24.24,39.12c-0.875,5.586,0.981,10.265,2.88,13.2
	c7.753,11.982,30.387,9.121,49.92,9.12c4,0,8,0,12,0c8.918,1.561,15.203,7.695,17.28,16.08c1.181,4.768,0.48,11.504,0.48,17.04
	c0,11.919,0,23.841,0,35.76c0,38.556,0,77.124,0,115.68c0.08,17.438,0.16,34.882,0.24,52.32c3.677,22.396,11.674,39.898,26.64,50.88
	c5.759,4.226,12.7,7.644,20.64,9.6c9.955,2.452,23.979,1.2,35.76,1.2C229.598,685.2,251.842,685.2,274.08,685.2z"/>
</svg>
